<svg width="20" height="20" viewBox="0 0 20 20" fill="none" xmlns="http://www.w3.org/2000/svg">
<path d="M17.2987 7.566H2.7027C2.40731 7.56633 2.11582 7.63342 1.85002 7.76226C1.58421 7.89109 1.35096 8.07834 1.1677 8.31C0.985201 8.54102 0.857677 8.81054 0.794784 9.09814C0.731892 9.38575 0.735282 9.6839 0.804697 9.97L2.3697 16.378C2.59629 17.2036 3.08825 17.9317 3.7697 18.45C4.4517 18.969 5.2867 19.25 6.1457 19.25H13.8537C14.7127 19.25 15.5477 18.969 16.2297 18.45C16.9111 17.9317 17.4031 17.2036 17.6297 16.378L19.1947 9.971C19.3 9.53906 19.2538 9.08403 19.0638 8.68209C18.8737 8.28015 18.5514 7.95568 18.1507 7.763C17.8841 7.635 17.5924 7.56772 17.2967 7.566M6.0877 11.46V15.355M10.0007 11.46V15.355M13.9137 11.46V15.355M16.8487 7.566C16.8484 6.67005 16.671 5.78299 16.3267 4.95582C15.9824 4.12864 15.4781 3.37765 14.8427 2.746C13.5562 1.4665 11.8152 0.748803 10.0007 0.750001C8.18624 0.748803 6.44521 1.4665 5.1587 2.746C4.52346 3.37773 4.01932 4.12876 3.67523 4.95593C3.33115 5.78311 3.15391 6.67012 3.1537 7.566" stroke="#3D3A4B" stroke-width="1.5" stroke-linecap="round" stroke-linejoin="round"/>
</svg>
