<svg width="26" height="30" viewBox="0 0 26 30" fill="none" xmlns="http://www.w3.org/2000/svg">
<path d="M1 7.5H25M10 13.5V22.5M16 13.5V22.5M2.5 7.5L4 25.5C4 26.2956 4.31607 27.0587 4.87868 27.6213C5.44129 28.1839 6.20435 28.5 7 28.5H19C19.7956 28.5 20.5587 28.1839 21.1213 27.6213C21.6839 27.0587 22 26.2956 22 25.5L23.5 7.5M8.5 7.5V3C8.5 2.60218 8.65804 2.22064 8.93934 1.93934C9.22064 1.65804 9.60218 1.5 10 1.5H16C16.3978 1.5 16.7794 1.65804 17.0607 1.93934C17.342 2.22064 17.5 2.60218 17.5 3V7.5" stroke="#F3FFB6" stroke-width="2" stroke-linecap="round" stroke-linejoin="round"/>
</svg>
